<?xml version="1.0" encoding="UTF-8"?><svg id="Elements" xmlns="http://www.w3.org/2000/svg" viewBox="0 0 768.48 194.42"><defs><style>.cls-1{fill:#f1f1f1;}.cls-2{fill:#03ff69;}</style></defs><g><path class="cls-2" d="m504.63,180.46c31.8-.4,64.22-3.01,97.21-8.91,28.94-5.07,58.08-11.51,87.28-18.9,10.4-2.87,21.21-5.28,31.44-8.9.02-2.81-1.63-4.85-2.93-6.81,74.04-23.43,54.01-80.5,16.89-104.62-32.52-21.03-73.54-28.88-115.39-31.28-56.73-2.46-117.81,7.73-178.33,32.09-27.9,11.77-67.37,29.64-89.34,55.71-30.19,38.68,5.14,69.58,31.17,77.92,37.21,12.72,79.61,14.23,121.98,13.69Zm-157.29-43.87c-12.8-31.41,30.04-63.37,56.99-79.34C499.88,2.55,608.4-9.19,690.78,15.71c27.36,8.76,76.99,29.69,72.02,68.55-6.39,34.9-48.98,47.27-74.54,54.76-35.04,9.51-69.67,14.39-103.63,16.88-9.49.72-18.9,1.13-28.27,1.36-9.62.11-19.28.26-28.55-.7-.46-.05-.55.63-.56.9.71,4.45,3.19,8.15,6.19,10.72,41.2-4.7,82.83-8.42,124.76-16.16-76.96,24.65-152.96,29.94-223.35,22.56-29.26-4.18-73.3-12.01-87.51-37.99Z"/><path class="cls-2" d="m490.99,181.25c-36.91,0-74.87-2.3-108.56-13.82-16.51-5.29-35.77-19.01-41.54-37.74-4.16-13.51-.79-27.39,10.04-41.27,20.87-24.77,57.01-42.17,89.62-55.93C499.07,8.94,560.84-2.17,619.17.35c49.62,2.85,87.47,13.12,115.74,31.39,10.46,6.8,19.52,16.19,25.5,26.45,6.48,11.1,9.13,22.63,7.68,33.34-1.94,14.27-12.09,33.75-49.35,45.79,1.2,1.77,2.55,3.78,2.53,6.44v.49s-.47.16-.47.16c-7.26,2.56-14.89,4.55-22.27,6.46-3.04.79-6.18,1.61-9.22,2.45-31.22,7.9-59.79,14.08-87.35,18.91-31.17,5.57-63.01,8.49-97.32,8.92h0c-4.53.06-9.08.09-13.65.09ZM602.8,1.4c-53.25,0-108.81,11.09-161.72,32.39-32.44,13.69-68.41,30.99-89.07,55.51-10.51,13.47-13.81,26.93-9.79,39.98,5.62,18.25,24.47,31.64,40.64,36.83,37.68,12.88,80.79,14.18,121.76,13.66h0c34.24-.43,66-3.33,97.1-8.89,27.53-4.82,56.06-11,87.23-18.89,3.04-.84,6.19-1.66,9.23-2.45,7.19-1.87,14.61-3.8,21.67-6.26-.14-2.01-1.23-3.63-2.3-5.19-.17-.25-.34-.5-.5-.75l-.51-.77.88-.28c37.29-11.8,47.38-30.95,49.28-44.93,2.31-17.05-6.85-41.74-32.56-58.44-28.06-18.14-65.69-28.34-115.05-31.17-5.4-.23-10.85-.35-16.3-.35Zm-109.27,176.98c-19.48,0-39.07-1.03-58.76-3.09-35.99-5.14-74.57-13.71-88.05-38.35l-.03-.07c-13.7-33.63,35.49-67.29,57.28-80.2,45.88-26.27,97.2-43.81,148.43-50.72,49.06-6.62,96.98-3.47,138.58,9.1,29.2,9.35,77.44,30.78,72.52,69.31-6.45,35.25-49.24,47.78-74.8,55.27l-.24.07c-31.58,8.58-65.52,14.1-103.78,16.91-8.82.67-18.08,1.11-28.3,1.36h-1.05c-9.07.11-18.44.22-27.35-.68,0,.04-.02.09-.02.15.62,3.77,2.65,7.32,5.72,10.03,8.36-.95,16.75-1.87,25.14-2.78,32.44-3.53,65.97-7.19,99.26-13.34l.34,1.35c-53.37,17.09-108.62,25.69-164.87,25.69Zm-145.56-42.08c13.2,24.07,51.37,32.51,86.97,37.6,72.54,7.6,143.93,1.13,212.36-19.24-29.7,5.02-59.46,8.26-88.35,11.41-8.5.93-16.98,1.85-25.44,2.82l-.3.03-.23-.2c-3.47-2.97-5.75-6.93-6.43-11.14v-.07s0-.07,0-.07c.02-.41.13-.97.52-1.31.22-.19.51-.28.81-.25,8.9.92,18.32.81,27.43.71h1.04c10.19-.26,19.42-.7,28.22-1.37,38.17-2.79,72.02-8.31,103.5-16.86l.23-.07c25.25-7.4,67.52-19.78,73.81-54.14,4.79-37.48-42.77-58.54-71.55-67.76-41.4-12.51-89.11-15.64-137.98-9.05-51.05,6.89-102.19,24.36-147.91,50.54-21.46,12.71-69.95,45.81-56.71,78.43Z"/></g><g><path class="cls-1" d="m37.48,59.24h17.99c-5.22,10.02-9.61,19.77-13.59,28.83h1.51c16.06,0,28.83,3.98,28.83,24.99l-20.59-.27c.14-19.22-.41-22.52-8.1-22.52h-2.75c-13.04,29.25-22.38,50.8-40.78,50.8l.14-22.52v-30.48h24.3l13.04-28.83ZM1.24,118.55c7.14-.41,13.46-8.65,17.44-17.71l4.67-10.43c-17.71.69-22.11,2.88-22.11,10.98v17.16ZM10.71,39.33c-1.78,6.73,2.06,16.06,8.51,16.06,13.46,0,24.3-17.44,43.52-17.3,15.1,0,18.4,13.46,18.4,19.91v9.75h-20.87l-.14-8.38c0-9.61-5.08-11.81-10.85-11.81-19.22,0-26.5,27.18-36.8,27.18-5.77,0-7.28-7.96-7.28-14.14,0-9.2,2.33-17.71,4.67-21.56l.82.27Z"/><path class="cls-1" d="m103.56,140.39h-17.03V44.28h16.89l.14,96.11Z"/><path class="cls-1" d="m131.67,140.39h-16.75V44.28h27.73c17.02,0,32.68,5.22,32.68,24.58,0,14.42-8.79,22.93-22.65,25.54l22.52,46h-17.16l-22.11-45.17h-4.12l-.14,45.17Zm10.98-58.21c9.2,0,15.79-2.06,15.79-12.49s-6.59-12.49-15.79-12.36h-10.85v24.85h10.85Z"/><path class="cls-1" d="m211.53,36.45l-11.26,7.55c-4.67,3.84-4.81,8.24-4.81,11.4,0,28.15,67.28,37.07,67.28,65.49,0,21.14-37.89,33.36-54.92,33.36-20.87,0-41.46-20.59-25.81-39.68l29.11-15.38.96,1.1c-10.98,5.22-15.79,12.22-15.79,21.69,0,26.09,51.9,35.42,51.9,9.75,0-35.29-66.18-29.25-66.18-67.14,0-12.36,21.14-23.48,30.07-29.38,12.77,28.28,32.81,30.07,36.66,5.22h.96l-5.35,35.7c-11.26,0-23.89-1.78-30.48-11.4-4.53-6.73-6.86-18.26-2.33-28.28Z"/><path class="cls-1" d="m252.83,44.41h63.16v12.36h-23.07l.14,83.61h-17.03V56.77h-23.2v-12.36Z"/><path class="cls-1" d="m422.67,59.24h17.99c-5.22,10.02-9.61,19.77-13.59,28.83h1.51c16.06,0,28.83,3.98,28.83,24.99l-20.59-.27c.14-19.22-.41-22.52-8.1-22.52h-2.75c-13.04,29.25-22.38,50.8-40.78,50.8l.14-22.52v-30.48h24.3l13.04-28.83Zm-36.25,59.31c7.14-.41,13.46-8.65,17.44-17.71l4.67-10.43c-17.71.69-22.11,2.88-22.11,10.98v17.16Zm9.47-79.22c-1.78,6.73,2.06,16.06,8.51,16.06,13.46,0,24.3-17.44,43.52-17.3,15.1,0,18.4,13.46,18.4,19.91v9.75h-20.87l-.14-8.38c0-9.61-5.08-11.81-10.85-11.81-19.22,0-26.5,27.18-36.8,27.18-5.77,0-7.28-7.96-7.28-14.14,0-9.2,2.33-17.71,4.67-21.56l.82.27Z"/><path class="cls-1" d="m488.16,140.39h-16.75V44.28h27.73c17.02,0,32.68,5.22,32.68,24.58,0,14.42-8.79,22.93-22.65,25.54l22.52,46h-17.16l-22.11-45.17h-4.12l-.14,45.17Zm10.98-58.21c9.2,0,15.79-2.06,15.79-12.49s-6.59-12.49-15.79-12.36h-10.85v24.85h10.85Z"/><path class="cls-1" d="m633.65,93.02c-1.1,29.66-28.97,54.1-48.33,54.1s-28.7-15.1-31.03-35.56c-25.13-7.96-33.91-38.17-22.65-52.45,9.75-12.63,23.48,1.65,28.56,12.49h-.41c-3.98-8.24-15.1-8.38-22.38.69-11.67,14.42-1.1,36.11,23.75,39.41-3.84-.96-7.14-2.33-7.14-3.71,0-38.03,35.15-70.98,65.22-70.98,9.34,0,22.52,7,22.52,23.75,0,28.7-38.58,51.21-69.75,52.72-.41,15.24,1.65,32.13,13.32,32.13,19.5,0,26.22-27.19,27.6-32.4,1.78-7.28,2.47-11.95,2.75-13.46,7.28-4.53,11.26-7.83,17.99-14.55,0,1.24.14,4.39,0,7.83Zm-54.23,3.43c-.27-15.38,7.14-44.62,28.83-43.39,17.71.96,25.13,15.51,25.26,28.42,4.53-6.32,7.28-13.18,7.28-20.46,0-15.38-12.08-22.38-23.48-22.38-19.22,0-35.15,20.32-42.29,46.68-3.71,14-3.02,22.52-3.02,26.77,15.24-.55,31.44-6.04,44.21-14.55,6.18-25.95,6.32-39.4-7.83-41.05-21.28-2.61-28.7,26.22-28.01,40.23l-.96-.27Z"/><path class="cls-1" d="m689.17,126.93c9.2,0,22.24-2.33,23.75-26.77v-1.65h-45.31v-12.36h60v54.23h-14.69v-19.91c-3.16,15.1-14.14,21.01-28.42,21.01-26.09,0-44.62-19.5-44.62-48.6s18.54-48.6,46.68-48.6h40.64l-.14,14.83-40.5-.28c-19.77,0-32.68,13.73-32.68,34.05s12.91,34.05,35.29,34.05Z"/></g><g><path class="cls-2" d="m717.64,136.95c1.3,1.97,2.95,4,2.93,6.81-10.23,3.61-21.04,6.03-31.45,8.9-29.2,7.39-58.34,13.83-87.28,18.9-32.99,5.9-65.41,8.51-97.21,8.91-26.36.33-52.73-.12-77.85-3.58l1.76-3.23c2.16.33,4.27.64,6.3.93,70.39,7.38,146.39,2.09,223.35-22.56-41.92,7.74-83.56,11.46-124.76,16.16-3-2.57-5.48-6.27-6.19-10.72.01-.27.1-.95.56-.9,9.28.96,18.94.81,28.55.7,9.36-.23,18.78-.64,28.27-1.36,33.96-2.49,68.59-7.36,103.63-16.88,22.75-6.67,58.98-17.19,71.19-44.02l6.98,1.36c-4.24,16.1-18.8,31.1-48.78,40.59Z"/><path class="cls-2" d="m490.76,181.26c-20.15,0-42.38-.7-64.07-3.68l-1-.14,2.49-4.55.48.07c2.16.33,4.26.64,6.3.93,72.54,7.6,143.93,1.13,212.36-19.24-29.71,5.02-59.49,8.26-88.39,11.41-8.48.92-16.95,1.85-25.4,2.81l-.3.03-.23-.2c-3.47-2.97-5.75-6.93-6.43-11.14v-.07s0-.07,0-.07c.02-.33.11-.95.52-1.31.23-.19.51-.28.81-.25,8.89.92,18.29.81,27.38.71h1.09c10.21-.26,19.44-.71,28.22-1.37,38.17-2.8,72.03-8.31,103.5-16.86l.23-.07c23.28-6.82,58.47-17.13,70.5-43.57l.23-.5,8.26,1.61-.19.72c-4.74,18-21.46,32.09-48.36,40.79,1.2,1.77,2.55,3.78,2.53,6.44v.49s-.47.16-.47.16c-7.26,2.56-14.89,4.55-22.27,6.46-3.04.79-6.18,1.61-9.22,2.45-31.21,7.9-59.78,14.08-87.35,18.91-31.17,5.57-63.01,8.49-97.32,8.92-4.49.06-9.13.1-13.89.1Zm-62.88-4.93c26.41,3.54,53.58,3.73,76.74,3.43,34.24-.42,66-3.33,97.1-8.89,27.54-4.82,56.07-11,87.23-18.89,3.04-.84,6.19-1.66,9.23-2.45,7.19-1.87,14.61-3.8,21.67-6.26-.14-2.02-1.24-3.63-2.3-5.19-.17-.25-.34-.5-.5-.75l-.51-.77.88-.28c26.57-8.41,43.19-22.01,48.12-39.38l-5.71-1.11c-12.5,26.65-47.76,36.98-71.15,43.83l-.25.07c-31.58,8.57-65.52,14.1-103.78,16.91-8.8.67-18.06,1.11-28.3,1.36h-1.1c-9.05.11-18.41.22-27.31-.68,0,.04-.02.09-.02.15.62,3.77,2.65,7.31,5.71,10.03,8.35-.95,16.72-1.86,25.1-2.78,32.45-3.54,66-7.19,99.31-13.34l.34,1.35c-71.85,23.01-147.09,30.61-223.63,22.59-1.91-.27-3.86-.56-5.85-.86l-1.04,1.91Z"/></g></svg>