<?xml version="1.0" encoding="UTF-8"?><svg id="Elements" xmlns="http://www.w3.org/2000/svg" viewBox="0 0 197.09 196.22"><defs><style>.cls-1{fill:#f1f1f1;}</style></defs><path class="cls-1" d="m36.88,21.13l3.1-1.98,15.2,11.35.05-.03-3.92-18.56,3.1-1.98,11.51,18-2.27,1.45-9.47-14.8-.05.03,4.03,18.28-2.01,1.29-14.9-11.33-.05.03,9.47,14.8-2.27,1.45-11.51-18Z"/><path class="cls-1" d="m73.06,20.01l-.47,5.65-2.69.7,2.23-22.67,2.89-.75,13,18.69-2.69.7-3.17-4.7-9.11,2.38Zm7.67-4.47l-6.49-9.83h-.06s-.86,11.76-.86,11.76l7.4-1.93Z"/><path class="cls-1" d="m95.53.05l-.23,11.44L106.25.27l3.29.07-8.58,8.7,8.74,12.67-3.14-.06-7.43-10.79-3.91,3.96-.13,6.6-2.69-.05.44-21.36,2.69.05Z"/><path class="cls-1" d="m130.48,14.94l-.7,2.29-10.49-3.19-2.17,7.15,12.21,3.71-.7,2.29-14.78-4.5,6.22-20.45,14.44,4.39-.7,2.29-11.87-3.61-1.96,6.43,10.49,3.19Z"/><path class="cls-1" d="m163.31,46.85c-2.23,2.17-5.91,2.53-9.68-1.35-3.52-3.62-4.31-8.3-1.01-11.93l1.87,1.93c-1.89,2.25-2.27,5.12.85,8.34,2.58,2.66,4.72,2.42,6.09,1.08,2.1-2.04,1.38-3.55-1.15-7.75-1.69-2.81-3.56-6.33-.58-9.22,2.42-2.35,5.84-2.05,9.13,1.34,3.16,3.26,3.7,7.15.77,10.49l-1.87-1.93c1.79-2.28,1.74-4.48-.62-6.9-2.1-2.17-4.06-2.51-5.33-1.28-2.04,1.98-.71,3.9.92,6.69,2.49,4.28,4.1,7.1.61,10.49Z"/><path class="cls-1" d="m171.5,49.02c5.71-2.94,11.78-1.35,14.65,4.23s.64,11.44-5.08,14.38-11.8,1.36-14.67-4.22-.61-11.45,5.1-14.39Zm8.34,16.21c4.09-2.11,6.64-6.11,4.18-10.89s-7.2-5.04-11.29-2.93c-4.09,2.11-6.67,6.12-4.21,10.9s7.22,5.02,11.32,2.92Z"/><path class="cls-1" d="m194.27,74.58l.5,3.64-16.69,9.04v.06s18.51,4.23,18.51,4.23l.5,3.64-21.18,2.89-.36-2.67,17.42-2.38v-.06s-18.3-4.02-18.3-4.02l-.32-2.37,16.54-8.78v-.06s-17.42,2.38-17.42,2.38l-.36-2.67,21.18-2.89Z"/><path class="cls-1" d="m185.07,119.88l-2.36-.41,1.88-10.81-7.36-1.28-2.18,12.58-2.36-.41,2.64-15.23,21.06,3.66-2.58,14.87-2.36-.41,2.12-12.22-6.63-1.15-1.88,10.81Z"/><path class="cls-1" d="m185.64,137.89l3.04-6.43,2.16,1.02-7.22,15.3-2.16-1.02,3.04-6.43-17.16-8.1,1.15-2.43,17.16,8.1Z"/><path class="cls-1" d="m176.09,158.58l-6.84-5.98-7.52,8.59,6.84,5.98-1.77,2.02-16.08-14.07,1.77-2.02,7.44,6.52,7.52-8.59-7.45-6.52,1.77-2.02,16.08,14.07-1.77,2.02Z"/><path class="cls-1" d="m155.95,177.83l-12.76-17.14,2.16-1.61,12.76,17.14-2.16,1.61Z"/><path class="cls-1" d="m146.78,184.12l-2.99,1.37-17.02-11.58-.05.03,7.32,16.02-2.45,1.12-8.88-19.44,2.99-1.37,17,11.53.05-.02-7.29-15.96,2.45-1.12,8.88,19.44Z"/><path class="cls-1" d="m110.11,193.74c5.04-.61,6.61-5.53,6.13-9.5-.49-4-2.59-8.47-7.93-7.83-3.8.46-6.58,3.57-6.1,7.54l6.91-.84.29,2.37-9.58,1.16-1.34-11.04,1.78-.22,1.25,2.89h.06c1.33-2.43,3.17-3.85,6.44-4.25,6.17-.75,10.11,3.47,10.89,9.88.77,6.38-2.64,11.49-8.51,12.2-5.37.65-8.53-1.79-9.76-5.74l2.67-.32c.99,2.95,3.6,4.08,6.8,3.69Z"/><path class="cls-1" d="m63.87,190.33l3.69-8.3-10.43-4.63-3.69,8.3-2.46-1.09,8.67-19.53,2.46,1.09-4.02,9.04,10.43,4.63,4.02-9.04,2.46,1.09-8.67,19.53-2.46-1.09Z"/><path class="cls-1" d="m48.89,163.94l4.9-2.86,2.12,1.8-19.85,11.18-2.28-1.94,7.84-21.38,2.12,1.8-2.03,5.3,7.18,6.09Zm-8.06-3.71l-4.32,10.95.05.04,10.11-6.04-5.83-4.95Z"/><path class="cls-1" d="m21.22,159.27l-4.78-7.02c-2.2-3.24-2.47-6.71,1.23-9.23,3.71-2.53,6.84-1.01,9.04,2.23l3.26,4.79,7.39-5.03,1.51,2.22-17.66,12.03Zm6.79-7.88l-3.43-5.04c-1.5-2.2-3.23-2.57-5.38-1.11-2.15,1.46-2.44,3.22-.94,5.42l3.43,5.04,6.32-4.31Z"/><path class="cls-1" d="m8.12,137.36l-2.81-8.01c-1.29-3.69-.66-7.12,3.57-8.6,4.23-1.48,6.86.79,8.16,4.49l1.92,5.47,8.43-2.96.89,2.54-20.16,7.07Zm8.58-5.86l-2.02-5.75c-.88-2.51-2.46-3.32-4.91-2.46s-3.18,2.48-2.3,4.99l2.02,5.75,7.22-2.53Z"/><path class="cls-1" d="m9.19,98.48l2.38-.17.8,10.94,7.45-.54-.92-12.72,2.38-.17,1.12,15.41-21.31,1.55-1.09-15.05,2.38-.17.9,12.37,6.71-.49-.79-10.94Z"/><path class="cls-1" d="m.61,86.7l.66-3.22,19.39-6.92v-.06s-17.23-3.53-17.23-3.53l.54-2.64,20.94,4.29-.66,3.22-19.33,6.93v.06s17.18,3.52,17.18,3.52l-.54,2.63L.61,86.7Z"/><path class="cls-1" d="m8.9,60.65l-1.24-.66,3.29-6.24,1.24.66-1.26,2.38,6.05,3.19-.78,1.48-6.05-3.19-1.26,2.38Zm3.68-9.99l6.36,1.26v-.03s-4.6-4.57-4.6-4.57l1.13-2.14,7.29,3.85-.73,1.37-5.52-2.91-.03.05,4.63,4.61-.74,1.4-6.4-1.25-.03.05,5.52,2.92-.71,1.35-7.29-3.85,1.12-2.11Z"/></svg>